<mxfile host="app.diagrams.net" agent="Mozilla/5.0 (Windows NT 10.0; Win64; x64) AppleWebKit/537.36 (KHTML, like Gecko) Chrome/137.0.0.0 Safari/537.36" version="27.1.4">
  <diagram name="Vista de Componentes de Alto Nivel" id="XgYhL_Q5aQ_7c3n0z8jG">
    <mxGraphModel dx="475" dy="274" grid="1" gridSize="10" guides="1" tooltips="1" connect="1" arrows="1" fold="1" page="1" pageScale="1" pageWidth="1169" pageHeight="827" math="0" shadow="0">
      <root>
        <mxCell id="0" />
        <mxCell id="1" parent="0" />
        <mxCell id="bJ7sigGb2fM7xMqMPN_4-60" value="CRM" style="html=1;whiteSpace=wrap;align=center;verticalAlign=top;" parent="1" vertex="1">
          <mxGeometry x="1300" y="710" width="1030" height="200" as="geometry" />
        </mxCell>
        <mxCell id="bJ7sigGb2fM7xMqMPN_4-45" value="Gestión de entidades" style="shape=module;align=left;spacingLeft=20;align=center;verticalAlign=top;whiteSpace=wrap;html=1;" parent="1" vertex="1">
          <mxGeometry x="1310" y="733" width="385" height="100" as="geometry" />
        </mxCell>
        <mxCell id="bJ7sigGb2fM7xMqMPN_4-32" value="Frontend" style="rounded=0;whiteSpace=wrap;html=1;align=center;verticalAlign=top;" parent="1" vertex="1">
          <mxGeometry x="1290" y="10" width="350" height="90" as="geometry" />
        </mxCell>
        <mxCell id="2" value="API Gateway &amp; Autenticación" style="shape=rectangle;whiteSpace=wrap;html=1;fillColor=#dae8fc;strokeColor=#6c8ebf" parent="1" vertex="1">
          <mxGeometry x="304" y="60" width="240" height="60" as="geometry" />
        </mxCell>
        <mxCell id="3" value="Aplicación Móvil" style="shape=rectangle;whiteSpace=wrap;html=1;fillColor=#fff2cc;strokeColor=#d6b656" parent="1" vertex="1">
          <mxGeometry x="64" y="60" width="160" height="60" as="geometry" />
        </mxCell>
        <mxCell id="4" style="endArrow=block;html=1;strokeColor=#000000" parent="1" source="3" target="2" edge="1">
          <mxGeometry relative="1" as="geometry" />
        </mxCell>
        <mxCell id="5" value="Interfaz Administrativa" style="shape=rectangle;whiteSpace=wrap;html=1;fillColor=#fff2cc;strokeColor=#d6b656" parent="1" vertex="1">
          <mxGeometry x="624" y="60" width="160" height="60" as="geometry" />
        </mxCell>
        <mxCell id="6" style="endArrow=block;html=1;strokeColor=#000000" parent="1" source="5" target="2" edge="1">
          <mxGeometry relative="1" as="geometry" />
        </mxCell>
        <mxCell id="7" value="Consola de Vigilancia" style="shape=rectangle;whiteSpace=wrap;html=1;fillColor=#fff2cc;strokeColor=#d6b656" parent="1" vertex="1">
          <mxGeometry x="304" y="140" width="240" height="60" as="geometry" />
        </mxCell>
        <mxCell id="8" style="endArrow=block;html=1;strokeColor=#000000" parent="1" source="2" target="7" edge="1">
          <mxGeometry relative="1" as="geometry" />
        </mxCell>
        <mxCell id="9" value="Servicio de Distribución de Video" style="shape=rectangle;whiteSpace=wrap;html=1;fillColor=#e1d5e7;strokeColor=#9673a6" parent="1" vertex="1">
          <mxGeometry x="304" y="220" width="240" height="60" as="geometry" />
        </mxCell>
        <mxCell id="10" style="endArrow=block;html=1;strokeColor=#000000" parent="1" source="7" target="9" edge="1">
          <mxGeometry relative="1" as="geometry" />
        </mxCell>
        <mxCell id="11" value="Módulo de Ingestión de Video" style="shape=rectangle;whiteSpace=wrap;html=1;fillColor=#d5e8d4;strokeColor=#82b366" parent="1" vertex="1">
          <mxGeometry x="304" y="300" width="240" height="60" as="geometry" />
        </mxCell>
        <mxCell id="12" style="endArrow=block;html=1;strokeColor=#000000" parent="1" source="11" target="9" edge="1">
          <mxGeometry relative="1" as="geometry" />
        </mxCell>
        <mxCell id="13" value="Módulo de Scoring de Cámaras" style="shape=rectangle;whiteSpace=wrap;html=1;fillColor=#f8cecc;strokeColor=#b85450" parent="1" vertex="1">
          <mxGeometry x="44" y="140" width="200" height="60" as="geometry" />
        </mxCell>
        <mxCell id="14" style="endArrow=block;html=1;strokeColor=#000000" parent="1" source="13" target="7" edge="1">
          <mxGeometry relative="1" as="geometry" />
        </mxCell>
        <mxCell id="15" value="Servicio de Control de Acceso" style="shape=rectangle;whiteSpace=wrap;html=1;fillColor=#dae8fc;strokeColor=#6c8ebf" parent="1" vertex="1">
          <mxGeometry x="24" y="290" width="240" height="60" as="geometry" />
        </mxCell>
        <mxCell id="ec98YSy7DlXxM9jS8AGu-22" style="edgeStyle=orthogonalEdgeStyle;rounded=0;orthogonalLoop=1;jettySize=auto;html=1;exitX=1;exitY=0.25;exitDx=0;exitDy=0;entryX=1;entryY=0.5;entryDx=0;entryDy=0;" parent="1" source="16" target="7" edge="1">
          <mxGeometry relative="1" as="geometry" />
        </mxCell>
        <mxCell id="ec98YSy7DlXxM9jS8AGu-23" style="edgeStyle=orthogonalEdgeStyle;rounded=0;orthogonalLoop=1;jettySize=auto;html=1;exitX=1;exitY=0.75;exitDx=0;exitDy=0;" parent="1" source="16" target="5" edge="1">
          <mxGeometry relative="1" as="geometry" />
        </mxCell>
        <mxCell id="16" value="CRM Central" style="shape=rectangle;whiteSpace=wrap;html=1;fillColor=#f8cecc;strokeColor=#b85450" parent="1" vertex="1">
          <mxGeometry x="244" y="390" width="240" height="60" as="geometry" />
        </mxCell>
        <mxCell id="ec98YSy7DlXxM9jS8AGu-20" style="edgeStyle=orthogonalEdgeStyle;rounded=0;orthogonalLoop=1;jettySize=auto;html=1;exitX=0.25;exitY=0;exitDx=0;exitDy=0;entryX=0.25;entryY=1;entryDx=0;entryDy=0;" parent="1" source="18" target="15" edge="1">
          <mxGeometry relative="1" as="geometry" />
        </mxCell>
        <mxCell id="18" value="Edge Controller" style="shape=rectangle;whiteSpace=wrap;html=1;fillColor=#e1d5e7;strokeColor=#9673a6" parent="1" vertex="1">
          <mxGeometry x="110" y="510" width="240" height="60" as="geometry" />
        </mxCell>
        <mxCell id="20" style="endArrow=block;html=1;strokeColor=#000000;exitX=0.75;exitY=0;exitDx=0;exitDy=0;entryX=0.191;entryY=0.995;entryDx=0;entryDy=0;entryPerimeter=0;" parent="1" source="18" target="16" edge="1">
          <mxGeometry relative="1" as="geometry">
            <mxPoint x="210" y="490" as="sourcePoint" />
          </mxGeometry>
        </mxCell>
        <mxCell id="ec98YSy7DlXxM9jS8AGu-21" style="edgeStyle=orthogonalEdgeStyle;rounded=0;orthogonalLoop=1;jettySize=auto;html=1;exitX=0.75;exitY=1;exitDx=0;exitDy=0;entryX=0.147;entryY=0.008;entryDx=0;entryDy=0;entryPerimeter=0;" parent="1" source="15" target="16" edge="1">
          <mxGeometry relative="1" as="geometry" />
        </mxCell>
        <mxCell id="bJ7sigGb2fM7xMqMPN_4-21" value="DB" style="shape=cylinder3;whiteSpace=wrap;html=1;boundedLbl=1;backgroundOutline=1;size=15;" parent="1" vertex="1">
          <mxGeometry x="610" y="520" width="60" height="80" as="geometry" />
        </mxCell>
        <mxCell id="bJ7sigGb2fM7xMqMPN_4-22" style="edgeStyle=orthogonalEdgeStyle;rounded=0;orthogonalLoop=1;jettySize=auto;html=1;exitX=0.75;exitY=1;exitDx=0;exitDy=0;entryX=0;entryY=0;entryDx=0;entryDy=52.5;entryPerimeter=0;" parent="1" source="16" target="bJ7sigGb2fM7xMqMPN_4-21" edge="1">
          <mxGeometry relative="1" as="geometry" />
        </mxCell>
        <mxCell id="bJ7sigGb2fM7xMqMPN_4-27" value="Frontend Mobile" style="shape=module;align=left;spacingLeft=20;align=center;verticalAlign=middle;whiteSpace=wrap;html=1;" parent="1" vertex="1">
          <mxGeometry x="1300" y="40" width="100" height="50" as="geometry" />
        </mxCell>
        <mxCell id="bJ7sigGb2fM7xMqMPN_4-29" value="Frontend Web" style="shape=module;align=left;spacingLeft=20;align=center;verticalAlign=middle;whiteSpace=wrap;html=1;" parent="1" vertex="1">
          <mxGeometry x="1410" y="40" width="100" height="50" as="geometry" />
        </mxCell>
        <mxCell id="bJ7sigGb2fM7xMqMPN_4-30" value="Interfaz administrativa" style="shape=module;align=left;spacingLeft=20;align=center;verticalAlign=middle;whiteSpace=wrap;html=1;" parent="1" vertex="1">
          <mxGeometry x="1524" y="40" width="100" height="50" as="geometry" />
        </mxCell>
        <mxCell id="bJ7sigGb2fM7xMqMPN_4-35" value="persistencia" style="rounded=0;whiteSpace=wrap;html=1;" parent="1" vertex="1">
          <mxGeometry x="380" y="480" width="120" height="60" as="geometry" />
        </mxCell>
        <mxCell id="bJ7sigGb2fM7xMqMPN_4-75" style="edgeStyle=orthogonalEdgeStyle;rounded=0;orthogonalLoop=1;jettySize=auto;html=1;" parent="1" target="bJ7sigGb2fM7xMqMPN_4-76" edge="1">
          <mxGeometry relative="1" as="geometry">
            <mxPoint x="2520" y="560" as="targetPoint" />
            <mxPoint x="2170" y="480" as="sourcePoint" />
          </mxGeometry>
        </mxCell>
        <mxCell id="bJ7sigGb2fM7xMqMPN_4-40" value="API Datos" style="shape=module;align=left;spacingLeft=20;align=center;verticalAlign=middle;whiteSpace=wrap;html=1;" parent="1" vertex="1">
          <mxGeometry x="1410" y="259" width="100" height="50" as="geometry" />
        </mxCell>
        <mxCell id="bJ7sigGb2fM7xMqMPN_4-46" value="Gestión de usuarios" style="html=1;whiteSpace=wrap;" parent="1" vertex="1">
          <mxGeometry x="1335" y="773" width="110" height="50" as="geometry" />
        </mxCell>
        <mxCell id="bJ7sigGb2fM7xMqMPN_4-47" value="Gestión de edificios" style="html=1;whiteSpace=wrap;" parent="1" vertex="1">
          <mxGeometry x="1453" y="773" width="110" height="50" as="geometry" />
        </mxCell>
        <mxCell id="bJ7sigGb2fM7xMqMPN_4-48" value="Gestión de dispositivos" style="html=1;whiteSpace=wrap;" parent="1" vertex="1">
          <mxGeometry x="1572" y="773" width="110" height="50" as="geometry" />
        </mxCell>
        <mxCell id="bJ7sigGb2fM7xMqMPN_4-53" value="Auditoría e Historial" style="shape=module;align=left;spacingLeft=20;align=center;verticalAlign=top;whiteSpace=wrap;html=1;" parent="1" vertex="1">
          <mxGeometry x="1704" y="733" width="620" height="100" as="geometry" />
        </mxCell>
        <mxCell id="bJ7sigGb2fM7xMqMPN_4-54" value="Historial de accesos" style="html=1;whiteSpace=wrap;" parent="1" vertex="1">
          <mxGeometry x="1732" y="773" width="110" height="50" as="geometry" />
        </mxCell>
        <mxCell id="bJ7sigGb2fM7xMqMPN_4-55" value="Registro de PINs (generación y uso)" style="html=1;whiteSpace=wrap;" parent="1" vertex="1">
          <mxGeometry x="1850" y="773" width="110" height="50" as="geometry" />
        </mxCell>
        <mxCell id="bJ7sigGb2fM7xMqMPN_4-56" value="Historial de solicitudes (soporte, quejas)" style="html=1;whiteSpace=wrap;" parent="1" vertex="1">
          <mxGeometry x="1969" y="773" width="110" height="50" as="geometry" />
        </mxCell>
        <mxCell id="bJ7sigGb2fM7xMqMPN_4-57" value="Historial de acceso a los videos&amp;nbsp;" style="html=1;whiteSpace=wrap;" parent="1" vertex="1">
          <mxGeometry x="2087" y="773" width="110" height="50" as="geometry" />
        </mxCell>
        <mxCell id="bJ7sigGb2fM7xMqMPN_4-58" value="Logs" style="html=1;whiteSpace=wrap;" parent="1" vertex="1">
          <mxGeometry x="2206" y="773" width="110" height="50" as="geometry" />
        </mxCell>
        <mxCell id="bJ7sigGb2fM7xMqMPN_4-59" value="Servicios expuestos por el CRM" style="shape=module;align=left;spacingLeft=20;align=center;verticalAlign=top;whiteSpace=wrap;html=1;" parent="1" vertex="1">
          <mxGeometry x="1602" y="840" width="172" height="60" as="geometry" />
        </mxCell>
        <mxCell id="bJ7sigGb2fM7xMqMPN_4-66" value="DB" style="shape=cylinder3;whiteSpace=wrap;html=1;boundedLbl=1;backgroundOutline=1;size=15;fillColor=#f8cecc;strokeColor=#b85450;" parent="1" vertex="1">
          <mxGeometry x="1785" y="970" width="60" height="80" as="geometry" />
        </mxCell>
        <mxCell id="bJ7sigGb2fM7xMqMPN_4-70" value="API Videos" style="shape=module;align=left;spacingLeft=20;align=center;verticalAlign=middle;whiteSpace=wrap;html=1;" parent="1" vertex="1">
          <mxGeometry x="1278" y="258.7" width="100" height="50" as="geometry" />
        </mxCell>
        <mxCell id="bJ7sigGb2fM7xMqMPN_4-72" value="Tumimeras (externo)" style="html=1;whiteSpace=wrap;fillColor=#dae8fc;strokeColor=#6c8ebf;" parent="1" vertex="1">
          <mxGeometry x="780" y="260" width="130" height="50" as="geometry" />
        </mxCell>
        <mxCell id="bJ7sigGb2fM7xMqMPN_4-74" style="rounded=0;orthogonalLoop=1;jettySize=auto;html=1;exitX=0.5;exitY=1;exitDx=0;exitDy=0;entryX=0.5;entryY=0;entryDx=0;entryDy=0;entryPerimeter=0;" parent="1" source="bJ7sigGb2fM7xMqMPN_4-60" target="bJ7sigGb2fM7xMqMPN_4-66" edge="1">
          <mxGeometry relative="1" as="geometry" />
        </mxCell>
        <mxCell id="bJ7sigGb2fM7xMqMPN_4-76" value="Peticiones: api?" style="html=1;whiteSpace=wrap;fillColor=#fff2cc;strokeColor=#d6b656;" parent="1" vertex="1">
          <mxGeometry x="2465" y="535" width="110" height="50" as="geometry" />
        </mxCell>
        <mxCell id="bJ7sigGb2fM7xMqMPN_4-79" value="Apertura de puertas" style="shape=module;align=left;spacingLeft=20;align=center;verticalAlign=top;whiteSpace=wrap;html=1;" parent="1" vertex="1">
          <mxGeometry x="2500" y="734" width="100" height="50" as="geometry" />
        </mxCell>
        <mxCell id="DKqnZgWaFf-IS6omjSuh-20" value="Autenticación y autorización" style="shape=module;align=center;spacingLeft=20;align=center;verticalAlign=middle;whiteSpace=wrap;html=1;" vertex="1" parent="1">
          <mxGeometry x="990" y="145" width="120" height="50" as="geometry" />
        </mxCell>
        <mxCell id="DKqnZgWaFf-IS6omjSuh-21" value="" style="rounded=0;orthogonalLoop=1;jettySize=auto;html=1;endArrow=halfCircle;endFill=0;endSize=6;strokeWidth=1;sketch=0;exitX=1;exitY=0.5;exitDx=0;exitDy=0;" edge="1" target="DKqnZgWaFf-IS6omjSuh-23" parent="1" source="DKqnZgWaFf-IS6omjSuh-20">
          <mxGeometry relative="1" as="geometry">
            <mxPoint x="1200" y="105" as="sourcePoint" />
            <mxPoint x="1170" y="109" as="targetPoint" />
          </mxGeometry>
        </mxCell>
        <mxCell id="DKqnZgWaFf-IS6omjSuh-22" value="" style="rounded=0;orthogonalLoop=1;jettySize=auto;html=1;endArrow=oval;endFill=0;sketch=0;sourcePerimeterSpacing=0;targetPerimeterSpacing=0;endSize=10;exitX=0.028;exitY=0.504;exitDx=0;exitDy=0;entryX=0.123;entryY=0.562;entryDx=0;entryDy=0;entryPerimeter=0;exitPerimeter=0;" edge="1" target="DKqnZgWaFf-IS6omjSuh-23" parent="1" source="DKqnZgWaFf-IS6omjSuh-34">
          <mxGeometry relative="1" as="geometry">
            <mxPoint x="1160" y="105" as="sourcePoint" />
            <mxPoint x="1174" y="105" as="targetPoint" />
          </mxGeometry>
        </mxCell>
        <mxCell id="DKqnZgWaFf-IS6omjSuh-38" value="IdAuth" style="edgeLabel;html=1;align=center;verticalAlign=middle;resizable=0;points=[];" vertex="1" connectable="0" parent="DKqnZgWaFf-IS6omjSuh-22">
          <mxGeometry x="0.2263" relative="1" as="geometry">
            <mxPoint x="-34" y="20" as="offset" />
          </mxGeometry>
        </mxCell>
        <mxCell id="DKqnZgWaFf-IS6omjSuh-23" value="" style="ellipse;whiteSpace=wrap;html=1;align=center;aspect=fixed;fillColor=none;strokeColor=none;resizable=0;perimeter=centerPerimeter;rotatable=0;allowArrows=0;points=[];outlineConnect=1;" vertex="1" parent="1">
          <mxGeometry x="1180" y="165" width="10" height="10" as="geometry" />
        </mxCell>
        <mxCell id="DKqnZgWaFf-IS6omjSuh-34" value="Edge Gateway" style="shape=module;align=center;spacingLeft=20;align=center;verticalAlign=middle;whiteSpace=wrap;html=1;" vertex="1" parent="1">
          <mxGeometry x="1278" y="145" width="362" height="50" as="geometry" />
        </mxCell>
        <mxCell id="DKqnZgWaFf-IS6omjSuh-35" value="" style="endArrow=classic;html=1;rounded=0;exitX=0.5;exitY=1;exitDx=0;exitDy=0;entryX=0.517;entryY=-0.005;entryDx=0;entryDy=0;entryPerimeter=0;dashed=1;" edge="1" parent="1" source="bJ7sigGb2fM7xMqMPN_4-32" target="DKqnZgWaFf-IS6omjSuh-34">
          <mxGeometry width="50" height="50" relative="1" as="geometry">
            <mxPoint x="1680" y="130" as="sourcePoint" />
            <mxPoint x="1730" y="80" as="targetPoint" />
          </mxGeometry>
        </mxCell>
        <mxCell id="DKqnZgWaFf-IS6omjSuh-42" value="" style="group" vertex="1" connectable="0" parent="1">
          <mxGeometry x="985" y="456.25" width="130" height="107.5" as="geometry" />
        </mxCell>
        <mxCell id="DKqnZgWaFf-IS6omjSuh-41" value="" style="shape=module;align=left;spacingLeft=20;align=center;verticalAlign=top;whiteSpace=wrap;html=1;" vertex="1" parent="DKqnZgWaFf-IS6omjSuh-42">
          <mxGeometry width="130" height="107.5" as="geometry" />
        </mxCell>
        <mxCell id="DKqnZgWaFf-IS6omjSuh-39" value="DB general" style="shape=cylinder3;whiteSpace=wrap;html=1;boundedLbl=1;backgroundOutline=1;size=15;fillColor=#f8cecc;strokeColor=#b85450;" vertex="1" parent="DKqnZgWaFf-IS6omjSuh-42">
          <mxGeometry x="47" y="13.629999999999999" width="50" height="80.25" as="geometry" />
        </mxCell>
        <mxCell id="DKqnZgWaFf-IS6omjSuh-43" value="" style="endArrow=classic;html=1;rounded=0;exitX=0.5;exitY=1;exitDx=0;exitDy=0;entryX=0.5;entryY=0;entryDx=0;entryDy=0;dashed=1;" edge="1" parent="1" source="DKqnZgWaFf-IS6omjSuh-20" target="DKqnZgWaFf-IS6omjSuh-41">
          <mxGeometry width="50" height="50" relative="1" as="geometry">
            <mxPoint x="1560" y="130" as="sourcePoint" />
            <mxPoint x="1560" y="175" as="targetPoint" />
          </mxGeometry>
        </mxCell>
        <mxCell id="DKqnZgWaFf-IS6omjSuh-44" value="" style="endArrow=classic;html=1;rounded=0;exitX=0.162;exitY=1.001;exitDx=0;exitDy=0;entryX=0.587;entryY=-0.006;entryDx=0;entryDy=0;entryPerimeter=0;dashed=1;exitPerimeter=0;" edge="1" parent="1" source="DKqnZgWaFf-IS6omjSuh-34" target="bJ7sigGb2fM7xMqMPN_4-70">
          <mxGeometry width="50" height="50" relative="1" as="geometry">
            <mxPoint x="1336.5900000000001" y="194.99999999999994" as="sourcePoint" />
            <mxPoint x="1448" y="154.7" as="targetPoint" />
          </mxGeometry>
        </mxCell>
        <mxCell id="DKqnZgWaFf-IS6omjSuh-45" value="" style="endArrow=classic;html=1;rounded=0;exitX=0.509;exitY=0.993;exitDx=0;exitDy=0;entryX=0.523;entryY=-0.018;entryDx=0;entryDy=0;entryPerimeter=0;dashed=1;exitPerimeter=0;" edge="1" parent="1" source="DKqnZgWaFf-IS6omjSuh-34" target="bJ7sigGb2fM7xMqMPN_4-40">
          <mxGeometry width="50" height="50" relative="1" as="geometry">
            <mxPoint x="1462.688" y="195.20000000000005" as="sourcePoint" />
            <mxPoint x="1445" y="235" as="targetPoint" />
          </mxGeometry>
        </mxCell>
        <mxCell id="DKqnZgWaFf-IS6omjSuh-46" value="API Peticiones" style="shape=module;align=left;spacingLeft=20;align=center;verticalAlign=middle;whiteSpace=wrap;html=1;" vertex="1" parent="1">
          <mxGeometry x="1530" y="259" width="110" height="50" as="geometry" />
        </mxCell>
        <mxCell id="DKqnZgWaFf-IS6omjSuh-48" value="" style="endArrow=classic;html=1;rounded=0;exitX=0.874;exitY=1.002;exitDx=0;exitDy=0;entryX=0.589;entryY=-0.006;entryDx=0;entryDy=0;entryPerimeter=0;dashed=1;exitPerimeter=0;" edge="1" parent="1" source="DKqnZgWaFf-IS6omjSuh-34" target="DKqnZgWaFf-IS6omjSuh-46">
          <mxGeometry width="50" height="50" relative="1" as="geometry">
            <mxPoint x="1461" y="220" as="sourcePoint" />
            <mxPoint x="1460" y="283" as="targetPoint" />
          </mxGeometry>
        </mxCell>
        <mxCell id="DKqnZgWaFf-IS6omjSuh-54" value="" style="ellipse;whiteSpace=wrap;html=1;align=center;aspect=fixed;fillColor=none;strokeColor=none;resizable=0;perimeter=centerPerimeter;rotatable=0;allowArrows=0;points=[];outlineConnect=1;" vertex="1" parent="1">
          <mxGeometry x="1150" y="280" width="10" height="10" as="geometry" />
        </mxCell>
        <mxCell id="DKqnZgWaFf-IS6omjSuh-57" value="" style="rounded=0;orthogonalLoop=1;jettySize=auto;html=1;endArrow=halfCircle;endFill=0;endSize=6;strokeWidth=1;sketch=0;exitX=0.101;exitY=0.511;exitDx=0;exitDy=0;exitPerimeter=0;jumpStyle=arc;jumpSize=15;entryX=1.1;entryY=0.42;entryDx=0;entryDy=0;entryPerimeter=0;" edge="1" parent="1" source="bJ7sigGb2fM7xMqMPN_4-70" target="DKqnZgWaFf-IS6omjSuh-62">
          <mxGeometry relative="1" as="geometry">
            <mxPoint x="1065" y="319.71" as="sourcePoint" />
            <mxPoint x="980" y="284" as="targetPoint" />
          </mxGeometry>
        </mxCell>
        <mxCell id="DKqnZgWaFf-IS6omjSuh-58" value="" style="rounded=0;orthogonalLoop=1;jettySize=auto;html=1;endArrow=oval;endFill=0;sketch=0;sourcePerimeterSpacing=0;targetPerimeterSpacing=0;endSize=10;exitX=1;exitY=0.5;exitDx=0;exitDy=0;entryX=0.22;entryY=0.54;entryDx=0;entryDy=0;entryPerimeter=0;" edge="1" parent="1" target="DKqnZgWaFf-IS6omjSuh-62" source="bJ7sigGb2fM7xMqMPN_4-72">
          <mxGeometry relative="1" as="geometry">
            <mxPoint x="1223" y="330" as="sourcePoint" />
            <mxPoint x="970" y="285" as="targetPoint" />
          </mxGeometry>
        </mxCell>
        <mxCell id="DKqnZgWaFf-IS6omjSuh-59" value="StreamProvider" style="edgeLabel;html=1;align=center;verticalAlign=middle;resizable=0;points=[];" vertex="1" connectable="0" parent="DKqnZgWaFf-IS6omjSuh-58">
          <mxGeometry x="0.2263" relative="1" as="geometry">
            <mxPoint x="28" y="15" as="offset" />
          </mxGeometry>
        </mxCell>
        <mxCell id="DKqnZgWaFf-IS6omjSuh-60" value="" style="ellipse;whiteSpace=wrap;html=1;align=center;aspect=fixed;fillColor=none;strokeColor=none;resizable=0;perimeter=centerPerimeter;rotatable=0;allowArrows=0;points=[];outlineConnect=1;" vertex="1" parent="1">
          <mxGeometry x="1115" y="325" width="10" height="10" as="geometry" />
        </mxCell>
        <mxCell id="DKqnZgWaFf-IS6omjSuh-62" value="" style="ellipse;whiteSpace=wrap;html=1;align=center;aspect=fixed;fillColor=none;strokeColor=none;resizable=0;perimeter=centerPerimeter;rotatable=0;allowArrows=0;points=[];outlineConnect=1;" vertex="1" parent="1">
          <mxGeometry x="965" y="280" width="10" height="10" as="geometry" />
        </mxCell>
        <mxCell id="DKqnZgWaFf-IS6omjSuh-63" value="" style="endArrow=classic;html=1;rounded=0;exitX=0.927;exitY=1.012;exitDx=0;exitDy=0;entryX=0;entryY=0.75;entryDx=10;entryDy=0;dashed=1;entryPerimeter=0;exitPerimeter=0;" edge="1" parent="1" source="bJ7sigGb2fM7xMqMPN_4-72" target="DKqnZgWaFf-IS6omjSuh-41">
          <mxGeometry width="50" height="50" relative="1" as="geometry">
            <mxPoint x="1040" y="350" as="sourcePoint" />
            <mxPoint x="1040" y="611" as="targetPoint" />
            <Array as="points">
              <mxPoint x="901" y="537" />
            </Array>
          </mxGeometry>
        </mxCell>
        <mxCell id="DKqnZgWaFf-IS6omjSuh-64" value="Descarga y envío de videos" style="shape=module;align=left;spacingLeft=20;align=center;verticalAlign=middle;whiteSpace=wrap;html=1;" vertex="1" parent="1">
          <mxGeometry x="770" y="462" width="110" height="50" as="geometry" />
        </mxCell>
        <mxCell id="DKqnZgWaFf-IS6omjSuh-65" value="" style="rounded=0;orthogonalLoop=1;jettySize=auto;html=1;endArrow=halfCircle;endFill=0;endSize=6;strokeWidth=1;sketch=0;exitX=0.138;exitY=0.998;exitDx=0;exitDy=0;exitPerimeter=0;" edge="1" parent="1" target="DKqnZgWaFf-IS6omjSuh-68" source="bJ7sigGb2fM7xMqMPN_4-72">
          <mxGeometry relative="1" as="geometry">
            <mxPoint x="720" y="375" as="sourcePoint" />
            <mxPoint x="780" y="314" as="targetPoint" />
          </mxGeometry>
        </mxCell>
        <mxCell id="DKqnZgWaFf-IS6omjSuh-66" value="" style="rounded=0;orthogonalLoop=1;jettySize=auto;html=1;endArrow=oval;endFill=0;sketch=0;sourcePerimeterSpacing=0;targetPerimeterSpacing=0;endSize=10;exitX=0.25;exitY=0;exitDx=0;exitDy=0;entryX=0.123;entryY=0.562;entryDx=0;entryDy=0;entryPerimeter=0;" edge="1" parent="1" target="DKqnZgWaFf-IS6omjSuh-68" source="DKqnZgWaFf-IS6omjSuh-64">
          <mxGeometry relative="1" as="geometry">
            <mxPoint x="898" y="375" as="sourcePoint" />
            <mxPoint x="784" y="310" as="targetPoint" />
          </mxGeometry>
        </mxCell>
        <mxCell id="DKqnZgWaFf-IS6omjSuh-67" value="RawVideoProvider" style="edgeLabel;html=1;align=center;verticalAlign=middle;resizable=0;points=[];" vertex="1" connectable="0" parent="DKqnZgWaFf-IS6omjSuh-66">
          <mxGeometry x="0.2263" relative="1" as="geometry">
            <mxPoint x="-5" y="-31" as="offset" />
          </mxGeometry>
        </mxCell>
        <mxCell id="DKqnZgWaFf-IS6omjSuh-68" value="" style="ellipse;whiteSpace=wrap;html=1;align=center;aspect=fixed;fillColor=none;strokeColor=none;resizable=0;perimeter=centerPerimeter;rotatable=0;allowArrows=0;points=[];outlineConnect=1;" vertex="1" parent="1">
          <mxGeometry x="793" y="430" width="10" height="10" as="geometry" />
        </mxCell>
        <mxCell id="DKqnZgWaFf-IS6omjSuh-69" value="" style="group" vertex="1" connectable="0" parent="1">
          <mxGeometry x="1039" y="600" width="130" height="107.5" as="geometry" />
        </mxCell>
        <mxCell id="DKqnZgWaFf-IS6omjSuh-70" value="" style="shape=module;align=left;spacingLeft=20;align=center;verticalAlign=top;whiteSpace=wrap;html=1;" vertex="1" parent="DKqnZgWaFf-IS6omjSuh-69">
          <mxGeometry width="130" height="107.5" as="geometry" />
        </mxCell>
        <mxCell id="DKqnZgWaFf-IS6omjSuh-71" value="DB histórica videos" style="shape=cylinder3;whiteSpace=wrap;html=1;boundedLbl=1;backgroundOutline=1;size=15;fillColor=#f8cecc;strokeColor=#b85450;" vertex="1" parent="DKqnZgWaFf-IS6omjSuh-69">
          <mxGeometry x="30" y="10.56" width="83" height="86.37" as="geometry" />
        </mxCell>
        <mxCell id="DKqnZgWaFf-IS6omjSuh-72" value="La Heladera" style="shape=module;align=left;spacingLeft=20;align=center;verticalAlign=middle;whiteSpace=wrap;html=1;" vertex="1" parent="1">
          <mxGeometry x="967.5" y="733" width="165" height="50" as="geometry" />
        </mxCell>
        <mxCell id="DKqnZgWaFf-IS6omjSuh-73" value="" style="endArrow=classic;html=1;rounded=0;entryX=0.283;entryY=1.005;entryDx=0;entryDy=0;dashed=1;exitX=0.325;exitY=-0.03;exitDx=0;exitDy=0;entryPerimeter=0;exitPerimeter=0;" edge="1" parent="1" source="DKqnZgWaFf-IS6omjSuh-72" target="DKqnZgWaFf-IS6omjSuh-41">
          <mxGeometry width="50" height="50" relative="1" as="geometry">
            <mxPoint x="1080" y="610" as="sourcePoint" />
            <mxPoint x="1050" y="621" as="targetPoint" />
          </mxGeometry>
        </mxCell>
        <mxCell id="DKqnZgWaFf-IS6omjSuh-74" value="" style="endArrow=classic;html=1;rounded=0;exitX=0.75;exitY=0;exitDx=0;exitDy=0;entryX=0.4;entryY=1.005;entryDx=0;entryDy=0;dashed=1;entryPerimeter=0;" edge="1" parent="1" source="DKqnZgWaFf-IS6omjSuh-72" target="DKqnZgWaFf-IS6omjSuh-70">
          <mxGeometry width="50" height="50" relative="1" as="geometry">
            <mxPoint x="1070" y="600" as="sourcePoint" />
            <mxPoint x="1070" y="656" as="targetPoint" />
          </mxGeometry>
        </mxCell>
        <mxCell id="DKqnZgWaFf-IS6omjSuh-75" value="" style="rounded=0;orthogonalLoop=1;jettySize=auto;html=1;endArrow=halfCircle;endFill=0;endSize=6;strokeWidth=1;sketch=0;exitX=0.858;exitY=-0.012;exitDx=0;exitDy=0;exitPerimeter=0;" edge="1" parent="1" target="DKqnZgWaFf-IS6omjSuh-78">
          <mxGeometry relative="1" as="geometry">
            <mxPoint x="864.3799999999999" y="462" as="sourcePoint" />
            <mxPoint x="837" y="318.6" as="targetPoint" />
          </mxGeometry>
        </mxCell>
        <mxCell id="DKqnZgWaFf-IS6omjSuh-76" value="" style="rounded=0;orthogonalLoop=1;jettySize=auto;html=1;endArrow=oval;endFill=0;sketch=0;sourcePerimeterSpacing=0;targetPerimeterSpacing=0;endSize=10;exitX=0.654;exitY=0.998;exitDx=0;exitDy=0;entryX=0.123;entryY=0.562;entryDx=0;entryDy=0;entryPerimeter=0;exitPerimeter=0;" edge="1" parent="1" target="DKqnZgWaFf-IS6omjSuh-78" source="bJ7sigGb2fM7xMqMPN_4-72">
          <mxGeometry relative="1" as="geometry">
            <mxPoint x="866.8399999999999" y="310.80000000000007" as="sourcePoint" />
            <mxPoint x="841" y="314.6" as="targetPoint" />
          </mxGeometry>
        </mxCell>
        <mxCell id="DKqnZgWaFf-IS6omjSuh-77" value="CamAuth" style="edgeLabel;html=1;align=center;verticalAlign=middle;resizable=0;points=[];" vertex="1" connectable="0" parent="DKqnZgWaFf-IS6omjSuh-76">
          <mxGeometry x="0.2263" relative="1" as="geometry">
            <mxPoint x="1" y="32" as="offset" />
          </mxGeometry>
        </mxCell>
        <mxCell id="DKqnZgWaFf-IS6omjSuh-78" value="" style="ellipse;whiteSpace=wrap;html=1;align=center;aspect=fixed;fillColor=none;strokeColor=none;resizable=0;perimeter=centerPerimeter;rotatable=0;allowArrows=0;points=[];outlineConnect=1;" vertex="1" parent="1">
          <mxGeometry x="860" y="340" width="10" height="10" as="geometry" />
        </mxCell>
      </root>
    </mxGraphModel>
  </diagram>
</mxfile>
